<mxfile host="app.diagrams.net" modified="2023-01-24T17:33:12.414Z" agent="5.0 (X11)" etag="ssa5odFL7JJlmRDKxV6Y" version="20.5.3" type="github">
  <diagram id="R2lEEEUBdFMjLlhIrx00" name="Page-1">
    <mxGraphModel dx="1422" dy="715" grid="1" gridSize="10" guides="1" tooltips="1" connect="1" arrows="1" fold="1" page="1" pageScale="1" pageWidth="827" pageHeight="1169" math="0" shadow="0" extFonts="Permanent Marker^https://fonts.googleapis.com/css?family=Permanent+Marker">
      <root>
        <mxCell id="0" />
        <mxCell id="1" parent="0" />
        <mxCell id="TmSD7UhLPy2CCh7BKd5N-5" value="PACIENTE" style="whiteSpace=wrap;html=1;align=center;" parent="1" vertex="1">
          <mxGeometry x="194" y="413" width="100" height="40" as="geometry" />
        </mxCell>
        <mxCell id="TmSD7UhLPy2CCh7BKd5N-8" value="&lt;div&gt;Solicita&lt;/div&gt;" style="shape=rhombus;perimeter=rhombusPerimeter;whiteSpace=wrap;html=1;align=center;" parent="1" vertex="1">
          <mxGeometry x="399" y="403.5" width="120" height="60" as="geometry" />
        </mxCell>
        <mxCell id="TmSD7UhLPy2CCh7BKd5N-9" value="" style="endArrow=none;html=1;rounded=0;exitX=1;exitY=0.5;exitDx=0;exitDy=0;" parent="1" source="TmSD7UhLPy2CCh7BKd5N-5" target="TmSD7UhLPy2CCh7BKd5N-8" edge="1">
          <mxGeometry relative="1" as="geometry">
            <mxPoint x="351" y="633" as="sourcePoint" />
            <mxPoint x="511" y="633" as="targetPoint" />
          </mxGeometry>
        </mxCell>
        <mxCell id="TmSD7UhLPy2CCh7BKd5N-10" value="" style="endArrow=none;html=1;rounded=0;exitX=1;exitY=0.5;exitDx=0;exitDy=0;entryX=0;entryY=0.5;entryDx=0;entryDy=0;" parent="1" source="TmSD7UhLPy2CCh7BKd5N-8" target="TmSD7UhLPy2CCh7BKd5N-52" edge="1">
          <mxGeometry relative="1" as="geometry">
            <mxPoint x="351" y="633" as="sourcePoint" />
            <mxPoint x="671" y="433" as="targetPoint" />
          </mxGeometry>
        </mxCell>
        <mxCell id="TmSD7UhLPy2CCh7BKd5N-11" value="&lt;div&gt;descripción&lt;/div&gt;" style="ellipse;whiteSpace=wrap;html=1;align=center;" parent="1" vertex="1">
          <mxGeometry x="409" y="567" width="100" height="40" as="geometry" />
        </mxCell>
        <mxCell id="TmSD7UhLPy2CCh7BKd5N-12" value="" style="endArrow=none;html=1;rounded=0;entryX=0.5;entryY=1;entryDx=0;entryDy=0;" parent="1" source="TmSD7UhLPy2CCh7BKd5N-11" target="TmSD7UhLPy2CCh7BKd5N-8" edge="1">
          <mxGeometry relative="1" as="geometry">
            <mxPoint x="352" y="635.5" as="sourcePoint" />
            <mxPoint x="512" y="635.5" as="targetPoint" />
          </mxGeometry>
        </mxCell>
        <mxCell id="TmSD7UhLPy2CCh7BKd5N-13" value="(0,1)" style="text;html=1;align=center;verticalAlign=middle;resizable=0;points=[];autosize=1;strokeColor=none;fillColor=none;" parent="1" vertex="1">
          <mxGeometry x="294" y="403" width="50" height="30" as="geometry" />
        </mxCell>
        <mxCell id="TmSD7UhLPy2CCh7BKd5N-14" value="(0,n)" style="text;html=1;align=center;verticalAlign=middle;resizable=0;points=[];autosize=1;strokeColor=none;fillColor=none;" parent="1" vertex="1">
          <mxGeometry x="556" y="403" width="50" height="30" as="geometry" />
        </mxCell>
        <mxCell id="TmSD7UhLPy2CCh7BKd5N-17" value="1:N" style="text;html=1;align=center;verticalAlign=middle;resizable=0;points=[];autosize=1;strokeColor=none;fillColor=none;" parent="1" vertex="1">
          <mxGeometry x="419" y="373" width="40" height="30" as="geometry" />
        </mxCell>
        <mxCell id="TmSD7UhLPy2CCh7BKd5N-20" value="Pertenece a" style="shape=rhombus;perimeter=rhombusPerimeter;whiteSpace=wrap;html=1;align=center;direction=west;" parent="1" vertex="1">
          <mxGeometry x="596" y="622" width="120" height="60" as="geometry" />
        </mxCell>
        <mxCell id="TmSD7UhLPy2CCh7BKd5N-21" value="" style="endArrow=none;html=1;rounded=0;entryX=0.5;entryY=1;entryDx=0;entryDy=0;exitX=0.5;exitY=1;exitDx=0;exitDy=0;" parent="1" source="TmSD7UhLPy2CCh7BKd5N-52" target="TmSD7UhLPy2CCh7BKd5N-20" edge="1">
          <mxGeometry relative="1" as="geometry">
            <mxPoint x="706" y="365" as="sourcePoint" />
            <mxPoint x="716" y="475" as="targetPoint" />
          </mxGeometry>
        </mxCell>
        <mxCell id="TmSD7UhLPy2CCh7BKd5N-25" value="" style="endArrow=none;html=1;rounded=0;exitX=0.5;exitY=0;exitDx=0;exitDy=0;entryX=0.5;entryY=0;entryDx=0;entryDy=0;" parent="1" source="TmSD7UhLPy2CCh7BKd5N-20" target="TmSD7UhLPy2CCh7BKd5N-53" edge="1">
          <mxGeometry relative="1" as="geometry">
            <mxPoint x="791" y="870" as="sourcePoint" />
            <mxPoint x="1376" y="602" as="targetPoint" />
          </mxGeometry>
        </mxCell>
        <mxCell id="TmSD7UhLPy2CCh7BKd5N-27" value="&lt;div&gt;NUHSA&lt;/div&gt;" style="ellipse;whiteSpace=wrap;html=1;align=center;fontStyle=4;" parent="1" vertex="1">
          <mxGeometry x="34" y="493" width="100" height="40" as="geometry" />
        </mxCell>
        <mxCell id="TmSD7UhLPy2CCh7BKd5N-28" value="&lt;div&gt;NUSS&lt;/div&gt;" style="ellipse;whiteSpace=wrap;html=1;align=center;" parent="1" vertex="1">
          <mxGeometry x="24" y="443" width="100" height="40" as="geometry" />
        </mxCell>
        <mxCell id="TmSD7UhLPy2CCh7BKd5N-30" value="" style="endArrow=none;html=1;rounded=0;exitX=1;exitY=0;exitDx=0;exitDy=0;entryX=0;entryY=1;entryDx=0;entryDy=0;" parent="1" source="TmSD7UhLPy2CCh7BKd5N-27" target="TmSD7UhLPy2CCh7BKd5N-5" edge="1">
          <mxGeometry relative="1" as="geometry">
            <mxPoint x="244" y="563" as="sourcePoint" />
            <mxPoint x="454" y="543" as="targetPoint" />
          </mxGeometry>
        </mxCell>
        <mxCell id="TmSD7UhLPy2CCh7BKd5N-33" value="" style="endArrow=none;html=1;rounded=0;exitX=1;exitY=0.5;exitDx=0;exitDy=0;" parent="1" source="TmSD7UhLPy2CCh7BKd5N-28" edge="1">
          <mxGeometry relative="1" as="geometry">
            <mxPoint x="294" y="643" as="sourcePoint" />
            <mxPoint x="194" y="443" as="targetPoint" />
          </mxGeometry>
        </mxCell>
        <mxCell id="TmSD7UhLPy2CCh7BKd5N-34" value="nombre" style="ellipse;whiteSpace=wrap;html=1;align=center;" parent="1" vertex="1">
          <mxGeometry x="24" y="383" width="100" height="40" as="geometry" />
        </mxCell>
        <mxCell id="TmSD7UhLPy2CCh7BKd5N-35" value="apellido1" style="ellipse;whiteSpace=wrap;html=1;align=center;" parent="1" vertex="1">
          <mxGeometry x="41" y="333" width="100" height="40" as="geometry" />
        </mxCell>
        <mxCell id="TmSD7UhLPy2CCh7BKd5N-36" value="&lt;div&gt;apellido2&lt;/div&gt;" style="ellipse;whiteSpace=wrap;html=1;align=center;" parent="1" vertex="1">
          <mxGeometry x="104" y="293" width="100" height="40" as="geometry" />
        </mxCell>
        <mxCell id="TmSD7UhLPy2CCh7BKd5N-37" value="" style="endArrow=none;html=1;rounded=0;exitX=1;exitY=0.5;exitDx=0;exitDy=0;" parent="1" source="TmSD7UhLPy2CCh7BKd5N-34" edge="1">
          <mxGeometry relative="1" as="geometry">
            <mxPoint x="294" y="573" as="sourcePoint" />
            <mxPoint x="194" y="423" as="targetPoint" />
          </mxGeometry>
        </mxCell>
        <mxCell id="TmSD7UhLPy2CCh7BKd5N-38" value="" style="endArrow=none;html=1;rounded=0;entryX=0;entryY=0;entryDx=0;entryDy=0;exitX=1;exitY=1;exitDx=0;exitDy=0;" parent="1" source="TmSD7UhLPy2CCh7BKd5N-35" target="TmSD7UhLPy2CCh7BKd5N-5" edge="1">
          <mxGeometry relative="1" as="geometry">
            <mxPoint x="124" y="357" as="sourcePoint" />
            <mxPoint x="454" y="573" as="targetPoint" />
          </mxGeometry>
        </mxCell>
        <mxCell id="TmSD7UhLPy2CCh7BKd5N-39" value="" style="endArrow=none;html=1;rounded=0;exitX=0.5;exitY=1;exitDx=0;exitDy=0;" parent="1" source="TmSD7UhLPy2CCh7BKd5N-36" target="TmSD7UhLPy2CCh7BKd5N-5" edge="1">
          <mxGeometry relative="1" as="geometry">
            <mxPoint x="294" y="573" as="sourcePoint" />
            <mxPoint x="454" y="573" as="targetPoint" />
          </mxGeometry>
        </mxCell>
        <mxCell id="TmSD7UhLPy2CCh7BKd5N-40" value="teléfonos" style="ellipse;shape=doubleEllipse;margin=3;whiteSpace=wrap;html=1;align=center;" parent="1" vertex="1">
          <mxGeometry x="124" y="527" width="100" height="40" as="geometry" />
        </mxCell>
        <mxCell id="TmSD7UhLPy2CCh7BKd5N-41" value="" style="endArrow=none;html=1;rounded=0;exitX=0.5;exitY=0;exitDx=0;exitDy=0;entryX=0.25;entryY=1;entryDx=0;entryDy=0;" parent="1" source="TmSD7UhLPy2CCh7BKd5N-40" target="TmSD7UhLPy2CCh7BKd5N-5" edge="1">
          <mxGeometry relative="1" as="geometry">
            <mxPoint x="294" y="573" as="sourcePoint" />
            <mxPoint x="454" y="573" as="targetPoint" />
          </mxGeometry>
        </mxCell>
        <mxCell id="TmSD7UhLPy2CCh7BKd5N-42" value="dirección" style="ellipse;whiteSpace=wrap;html=1;align=center;" parent="1" vertex="1">
          <mxGeometry x="254.5" y="527" width="100" height="40" as="geometry" />
        </mxCell>
        <mxCell id="TmSD7UhLPy2CCh7BKd5N-43" value="código_postal" style="ellipse;whiteSpace=wrap;html=1;align=center;" parent="1" vertex="1">
          <mxGeometry x="193" y="263" width="100" height="40" as="geometry" />
        </mxCell>
        <mxCell id="TmSD7UhLPy2CCh7BKd5N-44" value="&lt;div&gt;localidad&lt;/div&gt;" style="ellipse;whiteSpace=wrap;html=1;align=center;" parent="1" vertex="1">
          <mxGeometry x="341" y="473" width="100" height="40" as="geometry" />
        </mxCell>
        <mxCell id="TmSD7UhLPy2CCh7BKd5N-45" value="provincia" style="ellipse;whiteSpace=wrap;html=1;align=center;" parent="1" vertex="1">
          <mxGeometry x="286" y="293" width="100" height="40" as="geometry" />
        </mxCell>
        <mxCell id="TmSD7UhLPy2CCh7BKd5N-46" value="" style="endArrow=none;html=1;rounded=0;entryX=0.5;entryY=1;entryDx=0;entryDy=0;" parent="1" source="TmSD7UhLPy2CCh7BKd5N-5" target="TmSD7UhLPy2CCh7BKd5N-43" edge="1">
          <mxGeometry relative="1" as="geometry">
            <mxPoint x="324" y="573" as="sourcePoint" />
            <mxPoint x="484" y="573" as="targetPoint" />
          </mxGeometry>
        </mxCell>
        <mxCell id="TmSD7UhLPy2CCh7BKd5N-47" value="" style="endArrow=none;html=1;rounded=0;entryX=0;entryY=1;entryDx=0;entryDy=0;exitX=0.75;exitY=0;exitDx=0;exitDy=0;" parent="1" source="TmSD7UhLPy2CCh7BKd5N-5" target="TmSD7UhLPy2CCh7BKd5N-45" edge="1">
          <mxGeometry relative="1" as="geometry">
            <mxPoint x="294" y="413" as="sourcePoint" />
            <mxPoint x="484" y="573" as="targetPoint" />
          </mxGeometry>
        </mxCell>
        <mxCell id="TmSD7UhLPy2CCh7BKd5N-48" value="" style="endArrow=none;html=1;rounded=0;exitX=0.75;exitY=1;exitDx=0;exitDy=0;entryX=0.5;entryY=0;entryDx=0;entryDy=0;" parent="1" source="TmSD7UhLPy2CCh7BKd5N-5" target="TmSD7UhLPy2CCh7BKd5N-42" edge="1">
          <mxGeometry relative="1" as="geometry">
            <mxPoint x="324" y="573" as="sourcePoint" />
            <mxPoint x="484" y="573" as="targetPoint" />
          </mxGeometry>
        </mxCell>
        <mxCell id="TmSD7UhLPy2CCh7BKd5N-49" value="" style="endArrow=none;html=1;rounded=0;exitX=1;exitY=1;exitDx=0;exitDy=0;entryX=0;entryY=0;entryDx=0;entryDy=0;" parent="1" source="TmSD7UhLPy2CCh7BKd5N-5" target="TmSD7UhLPy2CCh7BKd5N-44" edge="1">
          <mxGeometry relative="1" as="geometry">
            <mxPoint x="324" y="573" as="sourcePoint" />
            <mxPoint x="484" y="573" as="targetPoint" />
          </mxGeometry>
        </mxCell>
        <mxCell id="TmSD7UhLPy2CCh7BKd5N-50" value="tipo" style="ellipse;whiteSpace=wrap;html=1;align=center;direction=west;" parent="1" vertex="1">
          <mxGeometry x="506" y="473" width="100" height="40" as="geometry" />
        </mxCell>
        <mxCell id="TmSD7UhLPy2CCh7BKd5N-51" value="&lt;span style=&quot;border-bottom: 1px dotted&quot;&gt;hora&lt;/span&gt;" style="ellipse;whiteSpace=wrap;html=1;align=center;" parent="1" vertex="1">
          <mxGeometry x="681" y="473" width="100" height="40" as="geometry" />
        </mxCell>
        <mxCell id="TmSD7UhLPy2CCh7BKd5N-52" value="CITA" style="shape=ext;margin=3;double=1;whiteSpace=wrap;html=1;align=center;" parent="1" vertex="1">
          <mxGeometry x="606" y="413" width="100" height="40" as="geometry" />
        </mxCell>
        <mxCell id="TmSD7UhLPy2CCh7BKd5N-53" value="&lt;div&gt;AGENDA&lt;/div&gt;" style="whiteSpace=wrap;html=1;align=center;" parent="1" vertex="1">
          <mxGeometry x="606" y="790" width="100" height="40" as="geometry" />
        </mxCell>
        <mxCell id="TmSD7UhLPy2CCh7BKd5N-54" value="(0,n)" style="text;html=1;align=center;verticalAlign=middle;resizable=0;points=[];autosize=1;strokeColor=none;fillColor=none;" parent="1" vertex="1">
          <mxGeometry x="606" y="453" width="50" height="30" as="geometry" />
        </mxCell>
        <mxCell id="TmSD7UhLPy2CCh7BKd5N-56" value="&lt;span style=&quot;border-bottom: 1px dotted&quot;&gt;fecha&lt;/span&gt;" style="ellipse;whiteSpace=wrap;html=1;align=center;" parent="1" vertex="1">
          <mxGeometry x="691" y="343" width="100" height="40" as="geometry" />
        </mxCell>
        <mxCell id="TmSD7UhLPy2CCh7BKd5N-57" value="" style="endArrow=none;html=1;rounded=0;exitX=0;exitY=1;exitDx=0;exitDy=0;entryX=0;entryY=1;entryDx=0;entryDy=0;" parent="1" source="TmSD7UhLPy2CCh7BKd5N-52" target="TmSD7UhLPy2CCh7BKd5N-50" edge="1">
          <mxGeometry relative="1" as="geometry">
            <mxPoint x="671" y="573" as="sourcePoint" />
            <mxPoint x="831" y="573" as="targetPoint" />
          </mxGeometry>
        </mxCell>
        <mxCell id="TmSD7UhLPy2CCh7BKd5N-58" value="" style="endArrow=none;html=1;rounded=0;exitX=1;exitY=1;exitDx=0;exitDy=0;entryX=0.5;entryY=0;entryDx=0;entryDy=0;" parent="1" source="TmSD7UhLPy2CCh7BKd5N-52" target="TmSD7UhLPy2CCh7BKd5N-51" edge="1">
          <mxGeometry relative="1" as="geometry">
            <mxPoint x="671" y="573" as="sourcePoint" />
            <mxPoint x="831" y="573" as="targetPoint" />
          </mxGeometry>
        </mxCell>
        <mxCell id="TmSD7UhLPy2CCh7BKd5N-59" value="" style="endArrow=none;html=1;rounded=0;exitX=0.5;exitY=1;exitDx=0;exitDy=0;entryX=1;entryY=0;entryDx=0;entryDy=0;" parent="1" source="TmSD7UhLPy2CCh7BKd5N-56" target="TmSD7UhLPy2CCh7BKd5N-52" edge="1">
          <mxGeometry relative="1" as="geometry">
            <mxPoint x="671" y="573" as="sourcePoint" />
            <mxPoint x="831" y="573" as="targetPoint" />
          </mxGeometry>
        </mxCell>
        <mxCell id="TmSD7UhLPy2CCh7BKd5N-60" value="1,N" style="text;html=1;align=center;verticalAlign=middle;resizable=0;points=[];autosize=1;strokeColor=none;fillColor=none;" parent="1" vertex="1">
          <mxGeometry x="616" y="592" width="40" height="30" as="geometry" />
        </mxCell>
        <mxCell id="TmSD7UhLPy2CCh7BKd5N-62" value="" style="endArrow=none;html=1;rounded=0;exitX=1;exitY=1;exitDx=0;exitDy=0;entryX=0.25;entryY=0;entryDx=0;entryDy=0;" parent="1" source="TmSD7UhLPy2CCh7BKd5N-63" target="TmSD7UhLPy2CCh7BKd5N-52" edge="1">
          <mxGeometry relative="1" as="geometry">
            <mxPoint x="631" y="323" as="sourcePoint" />
            <mxPoint x="971" y="473" as="targetPoint" />
          </mxGeometry>
        </mxCell>
        <mxCell id="TmSD7UhLPy2CCh7BKd5N-63" value="orden" style="ellipse;whiteSpace=wrap;html=1;align=center;" parent="1" vertex="1">
          <mxGeometry x="516" y="343" width="100" height="40" as="geometry" />
        </mxCell>
        <mxCell id="TmSD7UhLPy2CCh7BKd5N-70" value="(1,1)" style="text;html=1;align=center;verticalAlign=middle;resizable=0;points=[];autosize=1;strokeColor=none;fillColor=none;" parent="1" vertex="1">
          <mxGeometry x="656" y="760" width="50" height="30" as="geometry" />
        </mxCell>
        <mxCell id="TmSD7UhLPy2CCh7BKd5N-71" value="" style="triangle;whiteSpace=wrap;html=1;direction=south;" parent="1" vertex="1">
          <mxGeometry x="616" y="956" width="80" height="60" as="geometry" />
        </mxCell>
        <mxCell id="TmSD7UhLPy2CCh7BKd5N-72" value="" style="endArrow=none;html=1;rounded=0;exitX=0.5;exitY=1;exitDx=0;exitDy=0;entryX=0.5;entryY=0;entryDx=0;entryDy=0;" parent="1" source="TmSD7UhLPy2CCh7BKd5N-53" target="TmSD7UhLPy2CCh7BKd5N-116" edge="1">
          <mxGeometry relative="1" as="geometry">
            <mxPoint x="776" y="800" as="sourcePoint" />
            <mxPoint x="656" y="895" as="targetPoint" />
          </mxGeometry>
        </mxCell>
        <mxCell id="TmSD7UhLPy2CCh7BKd5N-74" value="AGENDA PROFESIONAL" style="whiteSpace=wrap;html=1;align=center;" parent="1" vertex="1">
          <mxGeometry x="691" y="1052" width="100" height="40" as="geometry" />
        </mxCell>
        <mxCell id="TmSD7UhLPy2CCh7BKd5N-75" value="AGENDA TAREA" style="whiteSpace=wrap;html=1;align=center;" parent="1" vertex="1">
          <mxGeometry x="531" y="1052" width="100" height="40" as="geometry" />
        </mxCell>
        <mxCell id="TmSD7UhLPy2CCh7BKd5N-76" value="" style="endArrow=none;html=1;rounded=0;exitX=0.5;exitY=1;exitDx=0;exitDy=0;entryX=0.5;entryY=0;entryDx=0;entryDy=0;" parent="1" source="TmSD7UhLPy2CCh7BKd5N-71" target="TmSD7UhLPy2CCh7BKd5N-75" edge="1">
          <mxGeometry relative="1" as="geometry">
            <mxPoint x="776" y="876" as="sourcePoint" />
            <mxPoint x="566" y="1042" as="targetPoint" />
          </mxGeometry>
        </mxCell>
        <mxCell id="TmSD7UhLPy2CCh7BKd5N-77" value="" style="endArrow=none;html=1;rounded=0;exitX=0.5;exitY=0;exitDx=0;exitDy=0;entryX=0.5;entryY=0;entryDx=0;entryDy=0;" parent="1" source="TmSD7UhLPy2CCh7BKd5N-71" target="TmSD7UhLPy2CCh7BKd5N-74" edge="1">
          <mxGeometry relative="1" as="geometry">
            <mxPoint x="776" y="876" as="sourcePoint" />
            <mxPoint x="751" y="1052" as="targetPoint" />
          </mxGeometry>
        </mxCell>
        <mxCell id="TmSD7UhLPy2CCh7BKd5N-78" value="" style="endArrow=none;html=1;rounded=0;edgeStyle=orthogonalEdgeStyle;curved=1;strokeWidth=2;" parent="1" edge="1">
          <mxGeometry width="50" height="50" relative="1" as="geometry">
            <mxPoint x="576" y="1000" as="sourcePoint" />
            <mxPoint x="736" y="1000" as="targetPoint" />
            <Array as="points">
              <mxPoint x="576" y="1030" />
              <mxPoint x="736" y="1030" />
            </Array>
          </mxGeometry>
        </mxCell>
        <mxCell id="TmSD7UhLPy2CCh7BKd5N-91" value="PROFESIONAL" style="whiteSpace=wrap;html=1;align=center;" parent="1" vertex="1">
          <mxGeometry x="193" y="790" width="100" height="40" as="geometry" />
        </mxCell>
        <mxCell id="TmSD7UhLPy2CCh7BKd5N-92" value="" style="endArrow=none;html=1;rounded=0;exitX=0;exitY=0.5;exitDx=0;exitDy=0;entryX=1;entryY=0.5;entryDx=0;entryDy=0;" parent="1" source="TmSD7UhLPy2CCh7BKd5N-103" target="TmSD7UhLPy2CCh7BKd5N-91" edge="1">
          <mxGeometry relative="1" as="geometry">
            <mxPoint x="324" y="695" as="sourcePoint" />
            <mxPoint x="624" y="585" as="targetPoint" />
          </mxGeometry>
        </mxCell>
        <mxCell id="TmSD7UhLPy2CCh7BKd5N-93" value="&lt;div&gt;nombre&lt;/div&gt;" style="ellipse;whiteSpace=wrap;html=1;align=center;" parent="1" vertex="1">
          <mxGeometry x="41" y="760" width="100" height="40" as="geometry" />
        </mxCell>
        <mxCell id="TmSD7UhLPy2CCh7BKd5N-94" value="aprellidos" style="ellipse;whiteSpace=wrap;html=1;align=center;" parent="1" vertex="1">
          <mxGeometry x="41" y="824" width="100" height="40" as="geometry" />
        </mxCell>
        <mxCell id="TmSD7UhLPy2CCh7BKd5N-95" value="teléfono" style="ellipse;whiteSpace=wrap;html=1;align=center;" parent="1" vertex="1">
          <mxGeometry x="124" y="874" width="100" height="40" as="geometry" />
        </mxCell>
        <mxCell id="TmSD7UhLPy2CCh7BKd5N-96" value="&lt;div&gt;tipo&lt;/div&gt;" style="ellipse;whiteSpace=wrap;html=1;align=center;" parent="1" vertex="1">
          <mxGeometry x="269" y="874" width="100" height="40" as="geometry" />
        </mxCell>
        <mxCell id="TmSD7UhLPy2CCh7BKd5N-97" value="" style="endArrow=none;html=1;rounded=0;strokeWidth=1;curved=1;exitX=0;exitY=0;exitDx=0;exitDy=0;entryX=1;entryY=0.5;entryDx=0;entryDy=0;" parent="1" source="TmSD7UhLPy2CCh7BKd5N-91" target="TmSD7UhLPy2CCh7BKd5N-93" edge="1">
          <mxGeometry relative="1" as="geometry">
            <mxPoint x="224" y="765" as="sourcePoint" />
            <mxPoint x="424" y="735" as="targetPoint" />
          </mxGeometry>
        </mxCell>
        <mxCell id="TmSD7UhLPy2CCh7BKd5N-98" value="" style="endArrow=none;html=1;rounded=0;strokeWidth=1;curved=1;exitX=0;exitY=1;exitDx=0;exitDy=0;entryX=1;entryY=0.5;entryDx=0;entryDy=0;" parent="1" source="TmSD7UhLPy2CCh7BKd5N-91" target="TmSD7UhLPy2CCh7BKd5N-94" edge="1">
          <mxGeometry relative="1" as="geometry">
            <mxPoint x="264" y="735" as="sourcePoint" />
            <mxPoint x="424" y="735" as="targetPoint" />
          </mxGeometry>
        </mxCell>
        <mxCell id="TmSD7UhLPy2CCh7BKd5N-99" value="" style="endArrow=none;html=1;rounded=0;strokeWidth=1;curved=1;exitX=0.25;exitY=1;exitDx=0;exitDy=0;entryX=0.5;entryY=0;entryDx=0;entryDy=0;" parent="1" source="TmSD7UhLPy2CCh7BKd5N-91" target="TmSD7UhLPy2CCh7BKd5N-95" edge="1">
          <mxGeometry relative="1" as="geometry">
            <mxPoint x="264" y="735" as="sourcePoint" />
            <mxPoint x="424" y="735" as="targetPoint" />
          </mxGeometry>
        </mxCell>
        <mxCell id="TmSD7UhLPy2CCh7BKd5N-100" value="" style="endArrow=none;html=1;rounded=0;strokeWidth=1;curved=1;exitX=0.75;exitY=1;exitDx=0;exitDy=0;entryX=0.5;entryY=0;entryDx=0;entryDy=0;" parent="1" source="TmSD7UhLPy2CCh7BKd5N-91" target="TmSD7UhLPy2CCh7BKd5N-96" edge="1">
          <mxGeometry relative="1" as="geometry">
            <mxPoint x="264" y="735" as="sourcePoint" />
            <mxPoint x="424" y="735" as="targetPoint" />
          </mxGeometry>
        </mxCell>
        <mxCell id="TmSD7UhLPy2CCh7BKd5N-101" value="&lt;u&gt;DNI&lt;/u&gt;" style="ellipse;whiteSpace=wrap;html=1;align=center;" parent="1" vertex="1">
          <mxGeometry x="124" y="708" width="100" height="40" as="geometry" />
        </mxCell>
        <mxCell id="TmSD7UhLPy2CCh7BKd5N-102" value="" style="endArrow=none;html=1;rounded=0;strokeWidth=1;curved=1;exitX=0.5;exitY=1;exitDx=0;exitDy=0;entryX=0.25;entryY=0;entryDx=0;entryDy=0;" parent="1" source="TmSD7UhLPy2CCh7BKd5N-101" target="TmSD7UhLPy2CCh7BKd5N-91" edge="1">
          <mxGeometry relative="1" as="geometry">
            <mxPoint x="264" y="775" as="sourcePoint" />
            <mxPoint x="424" y="775" as="targetPoint" />
          </mxGeometry>
        </mxCell>
        <mxCell id="TmSD7UhLPy2CCh7BKd5N-103" value="Realiza" style="shape=rhombus;perimeter=rhombusPerimeter;whiteSpace=wrap;html=1;align=center;" parent="1" vertex="1">
          <mxGeometry x="381" y="780" width="120" height="60" as="geometry" />
        </mxCell>
        <mxCell id="TmSD7UhLPy2CCh7BKd5N-104" value="" style="endArrow=none;html=1;rounded=0;strokeWidth=1;curved=1;entryX=0;entryY=0.5;entryDx=0;entryDy=0;exitX=1;exitY=0.5;exitDx=0;exitDy=0;" parent="1" source="TmSD7UhLPy2CCh7BKd5N-103" target="TmSD7UhLPy2CCh7BKd5N-53" edge="1">
          <mxGeometry relative="1" as="geometry">
            <mxPoint x="231" y="875" as="sourcePoint" />
            <mxPoint x="391" y="875" as="targetPoint" />
          </mxGeometry>
        </mxCell>
        <mxCell id="TmSD7UhLPy2CCh7BKd5N-105" value="Asignado a" style="shape=rhombus;perimeter=rhombusPerimeter;whiteSpace=wrap;html=1;align=center;" parent="1" vertex="1">
          <mxGeometry x="184" y="622" width="120" height="60" as="geometry" />
        </mxCell>
        <mxCell id="TmSD7UhLPy2CCh7BKd5N-106" value="" style="endArrow=none;html=1;rounded=0;strokeWidth=1;curved=1;exitX=0.5;exitY=0;exitDx=0;exitDy=0;entryX=0.5;entryY=1;entryDx=0;entryDy=0;" parent="1" source="TmSD7UhLPy2CCh7BKd5N-105" target="TmSD7UhLPy2CCh7BKd5N-5" edge="1">
          <mxGeometry relative="1" as="geometry">
            <mxPoint x="331" y="565" as="sourcePoint" />
            <mxPoint x="491" y="565" as="targetPoint" />
          </mxGeometry>
        </mxCell>
        <mxCell id="TmSD7UhLPy2CCh7BKd5N-107" value="" style="endArrow=none;html=1;rounded=0;strokeWidth=1;curved=1;exitX=0.5;exitY=1;exitDx=0;exitDy=0;entryX=0.5;entryY=0;entryDx=0;entryDy=0;" parent="1" source="TmSD7UhLPy2CCh7BKd5N-105" target="TmSD7UhLPy2CCh7BKd5N-91" edge="1">
          <mxGeometry relative="1" as="geometry">
            <mxPoint x="331" y="565" as="sourcePoint" />
            <mxPoint x="491" y="565" as="targetPoint" />
          </mxGeometry>
        </mxCell>
        <mxCell id="TmSD7UhLPy2CCh7BKd5N-108" value="nombre" style="ellipse;whiteSpace=wrap;html=1;align=center;" parent="1" vertex="1">
          <mxGeometry x="406" y="982" width="100" height="40" as="geometry" />
        </mxCell>
        <mxCell id="TmSD7UhLPy2CCh7BKd5N-109" value="" style="endArrow=none;html=1;rounded=0;strokeWidth=1;curved=1;exitX=1;exitY=1;exitDx=0;exitDy=0;entryX=0;entryY=0;entryDx=0;entryDy=0;" parent="1" source="TmSD7UhLPy2CCh7BKd5N-108" target="TmSD7UhLPy2CCh7BKd5N-75" edge="1">
          <mxGeometry relative="1" as="geometry">
            <mxPoint x="466" y="1177" as="sourcePoint" />
            <mxPoint x="626" y="1177" as="targetPoint" />
          </mxGeometry>
        </mxCell>
        <mxCell id="TmSD7UhLPy2CCh7BKd5N-110" value="(0,n)" style="text;html=1;align=center;verticalAlign=middle;resizable=0;points=[];autosize=1;strokeColor=none;fillColor=none;" parent="1" vertex="1">
          <mxGeometry x="236" y="454" width="50" height="30" as="geometry" />
        </mxCell>
        <mxCell id="TmSD7UhLPy2CCh7BKd5N-111" value="(0,1)" style="text;html=1;align=center;verticalAlign=middle;resizable=0;points=[];autosize=1;strokeColor=none;fillColor=none;" parent="1" vertex="1">
          <mxGeometry x="244" y="760" width="50" height="30" as="geometry" />
        </mxCell>
        <mxCell id="TmSD7UhLPy2CCh7BKd5N-112" value="1:N" style="text;html=1;align=center;verticalAlign=middle;resizable=0;points=[];autosize=1;strokeColor=none;fillColor=none;" parent="1" vertex="1">
          <mxGeometry x="204" y="592" width="40" height="30" as="geometry" />
        </mxCell>
        <mxCell id="TmSD7UhLPy2CCh7BKd5N-113" value="(0,1)" style="text;html=1;align=center;verticalAlign=middle;resizable=0;points=[];autosize=1;strokeColor=none;fillColor=none;" parent="1" vertex="1">
          <mxGeometry x="294" y="779" width="50" height="30" as="geometry" />
        </mxCell>
        <mxCell id="TmSD7UhLPy2CCh7BKd5N-114" value="(0,n)" style="text;html=1;align=center;verticalAlign=middle;resizable=0;points=[];autosize=1;strokeColor=none;fillColor=none;" parent="1" vertex="1">
          <mxGeometry x="556" y="780" width="50" height="30" as="geometry" />
        </mxCell>
        <mxCell id="TmSD7UhLPy2CCh7BKd5N-115" value="1:N" style="text;html=1;align=center;verticalAlign=middle;resizable=0;points=[];autosize=1;strokeColor=none;fillColor=none;" parent="1" vertex="1">
          <mxGeometry x="421" y="748" width="40" height="30" as="geometry" />
        </mxCell>
        <mxCell id="TmSD7UhLPy2CCh7BKd5N-116" value="" style="ellipse;whiteSpace=wrap;html=1;aspect=fixed;" parent="1" vertex="1">
          <mxGeometry x="631" y="906" width="50" height="50" as="geometry" />
        </mxCell>
        <mxCell id="CRbmaLVPum_Gk4sRa5jC-1" value="&lt;div&gt;Consulta&lt;/div&gt;" style="whiteSpace=wrap;html=1;align=center;direction=west;" parent="1" vertex="1">
          <mxGeometry x="195.5" y="1072" width="100" height="40" as="geometry" />
        </mxCell>
        <mxCell id="CRbmaLVPum_Gk4sRa5jC-2" value="&lt;div&gt;nombre&lt;/div&gt;" style="ellipse;whiteSpace=wrap;html=1;align=center;direction=east;" parent="1" vertex="1">
          <mxGeometry x="61" y="1006" width="100" height="40" as="geometry" />
        </mxCell>
        <mxCell id="CRbmaLVPum_Gk4sRa5jC-3" value="ubicación" style="ellipse;whiteSpace=wrap;html=1;align=center;direction=west;" parent="1" vertex="1">
          <mxGeometry x="41" y="1072" width="100" height="40" as="geometry" />
        </mxCell>
        <mxCell id="CRbmaLVPum_Gk4sRa5jC-4" value="" style="endArrow=none;html=1;rounded=0;exitX=1;exitY=1;exitDx=0;exitDy=0;entryX=1;entryY=1;entryDx=0;entryDy=0;" parent="1" source="CRbmaLVPum_Gk4sRa5jC-2" target="CRbmaLVPum_Gk4sRa5jC-1" edge="1">
          <mxGeometry relative="1" as="geometry">
            <mxPoint x="169" y="1106" as="sourcePoint" />
            <mxPoint x="329" y="1106" as="targetPoint" />
          </mxGeometry>
        </mxCell>
        <mxCell id="CRbmaLVPum_Gk4sRa5jC-6" value="" style="endArrow=none;html=1;rounded=0;entryX=0;entryY=0.5;entryDx=0;entryDy=0;exitX=1;exitY=0.5;exitDx=0;exitDy=0;" parent="1" source="CRbmaLVPum_Gk4sRa5jC-1" target="CRbmaLVPum_Gk4sRa5jC-3" edge="1">
          <mxGeometry relative="1" as="geometry">
            <mxPoint x="201" y="1112" as="sourcePoint" />
            <mxPoint x="329" y="1106" as="targetPoint" />
          </mxGeometry>
        </mxCell>
        <mxCell id="CRbmaLVPum_Gk4sRa5jC-7" value="Se realiza en" style="shape=rhombus;perimeter=rhombusPerimeter;whiteSpace=wrap;html=1;align=center;direction=west;" parent="1" vertex="1">
          <mxGeometry x="184" y="956" width="120" height="60" as="geometry" />
        </mxCell>
        <mxCell id="CRbmaLVPum_Gk4sRa5jC-8" value="" style="endArrow=none;html=1;rounded=0;exitX=0;exitY=1;exitDx=0;exitDy=0;entryX=0;entryY=0.5;entryDx=0;entryDy=0;" parent="1" source="TmSD7UhLPy2CCh7BKd5N-53" target="CRbmaLVPum_Gk4sRa5jC-7" edge="1">
          <mxGeometry relative="1" as="geometry">
            <mxPoint x="254" y="1765" as="sourcePoint" />
            <mxPoint x="160.5" y="1210" as="targetPoint" />
          </mxGeometry>
        </mxCell>
        <mxCell id="CRbmaLVPum_Gk4sRa5jC-9" value="" style="endArrow=none;html=1;rounded=0;exitX=0.5;exitY=0;exitDx=0;exitDy=0;entryX=0.5;entryY=1;entryDx=0;entryDy=0;" parent="1" source="CRbmaLVPum_Gk4sRa5jC-7" target="CRbmaLVPum_Gk4sRa5jC-1" edge="1">
          <mxGeometry relative="1" as="geometry">
            <mxPoint x="-99.5" y="1351" as="sourcePoint" />
            <mxPoint x="362" y="1111" as="targetPoint" />
          </mxGeometry>
        </mxCell>
        <mxCell id="CRbmaLVPum_Gk4sRa5jC-10" value="(0,n)" style="text;html=1;align=center;verticalAlign=middle;resizable=0;points=[];autosize=1;strokeColor=none;fillColor=none;" parent="1" vertex="1">
          <mxGeometry x="556" y="809" width="50" height="30" as="geometry" />
        </mxCell>
        <mxCell id="CRbmaLVPum_Gk4sRa5jC-11" value="(1,1)" style="text;html=1;align=center;verticalAlign=middle;resizable=0;points=[];autosize=1;strokeColor=none;fillColor=none;" parent="1" vertex="1">
          <mxGeometry x="245" y="1042" width="50" height="30" as="geometry" />
        </mxCell>
        <mxCell id="CRbmaLVPum_Gk4sRa5jC-12" value="1:N" style="text;html=1;align=center;verticalAlign=middle;resizable=0;points=[];autosize=1;strokeColor=none;fillColor=none;" parent="1" vertex="1">
          <mxGeometry x="225.5" y="926" width="40" height="30" as="geometry" />
        </mxCell>
        <mxCell id="fkJgAvSZz7Qy0QHSCjKu-1" value="Asigna" style="shape=rhombus;perimeter=rhombusPerimeter;whiteSpace=wrap;html=1;align=center;" parent="1" vertex="1">
          <mxGeometry x="399.5" y="258" width="120" height="60" as="geometry" />
        </mxCell>
        <mxCell id="fkJgAvSZz7Qy0QHSCjKu-2" value="USUARIO" style="whiteSpace=wrap;html=1;align=center;" parent="1" vertex="1">
          <mxGeometry x="409.5" y="130" width="100" height="40" as="geometry" />
        </mxCell>
        <mxCell id="fkJgAvSZz7Qy0QHSCjKu-3" value="" style="endArrow=none;html=1;rounded=0;exitX=0.5;exitY=1;exitDx=0;exitDy=0;entryX=0.5;entryY=0;entryDx=0;entryDy=0;" parent="1" source="fkJgAvSZz7Qy0QHSCjKu-2" target="fkJgAvSZz7Qy0QHSCjKu-1" edge="1">
          <mxGeometry relative="1" as="geometry">
            <mxPoint x="341.5" y="235" as="sourcePoint" />
            <mxPoint x="501.5" y="235" as="targetPoint" />
          </mxGeometry>
        </mxCell>
        <mxCell id="fkJgAvSZz7Qy0QHSCjKu-4" value="" style="endArrow=none;html=1;rounded=0;entryX=0.5;entryY=0;entryDx=0;entryDy=0;exitX=0.5;exitY=1;exitDx=0;exitDy=0;" parent="1" source="fkJgAvSZz7Qy0QHSCjKu-1" target="TmSD7UhLPy2CCh7BKd5N-8" edge="1">
          <mxGeometry relative="1" as="geometry">
            <mxPoint x="471" y="285" as="sourcePoint" />
            <mxPoint x="511" y="283" as="targetPoint" />
          </mxGeometry>
        </mxCell>
        <mxCell id="fkJgAvSZz7Qy0QHSCjKu-5" value="&lt;div&gt;nombre&lt;/div&gt;" style="ellipse;whiteSpace=wrap;html=1;align=center;" parent="1" vertex="1">
          <mxGeometry x="257.5" y="130" width="100" height="40" as="geometry" />
        </mxCell>
        <mxCell id="fkJgAvSZz7Qy0QHSCjKu-6" value="apellidos" style="ellipse;whiteSpace=wrap;html=1;align=center;" parent="1" vertex="1">
          <mxGeometry x="280" y="200" width="100" height="40" as="geometry" />
        </mxCell>
        <mxCell id="fkJgAvSZz7Qy0QHSCjKu-7" value="&lt;u&gt;DNI&lt;/u&gt;" style="ellipse;whiteSpace=wrap;html=1;align=center;" parent="1" vertex="1">
          <mxGeometry x="280" y="55" width="100" height="40" as="geometry" />
        </mxCell>
        <mxCell id="fkJgAvSZz7Qy0QHSCjKu-8" value="contraseña" style="ellipse;whiteSpace=wrap;html=1;align=center;" parent="1" vertex="1">
          <mxGeometry x="409.5" y="35" width="100" height="40" as="geometry" />
        </mxCell>
        <mxCell id="fkJgAvSZz7Qy0QHSCjKu-9" value="" style="endArrow=none;html=1;rounded=0;exitX=1;exitY=1;exitDx=0;exitDy=0;entryX=0;entryY=0;entryDx=0;entryDy=0;" parent="1" source="fkJgAvSZz7Qy0QHSCjKu-7" target="fkJgAvSZz7Qy0QHSCjKu-2" edge="1">
          <mxGeometry relative="1" as="geometry">
            <mxPoint x="339.5" y="249" as="sourcePoint" />
            <mxPoint x="499.5" y="249" as="targetPoint" />
          </mxGeometry>
        </mxCell>
        <mxCell id="fkJgAvSZz7Qy0QHSCjKu-10" value="" style="endArrow=none;html=1;rounded=0;exitX=1;exitY=0;exitDx=0;exitDy=0;entryX=0;entryY=1;entryDx=0;entryDy=0;" parent="1" source="fkJgAvSZz7Qy0QHSCjKu-6" target="fkJgAvSZz7Qy0QHSCjKu-2" edge="1">
          <mxGeometry relative="1" as="geometry">
            <mxPoint x="339.5" y="249" as="sourcePoint" />
            <mxPoint x="499.5" y="249" as="targetPoint" />
          </mxGeometry>
        </mxCell>
        <mxCell id="fkJgAvSZz7Qy0QHSCjKu-11" value="" style="endArrow=none;html=1;rounded=0;exitX=1;exitY=0.5;exitDx=0;exitDy=0;entryX=0;entryY=0.5;entryDx=0;entryDy=0;" parent="1" source="fkJgAvSZz7Qy0QHSCjKu-5" target="fkJgAvSZz7Qy0QHSCjKu-2" edge="1">
          <mxGeometry relative="1" as="geometry">
            <mxPoint x="339.5" y="249" as="sourcePoint" />
            <mxPoint x="499.5" y="249" as="targetPoint" />
          </mxGeometry>
        </mxCell>
        <mxCell id="fkJgAvSZz7Qy0QHSCjKu-12" value="fecha_nac" style="ellipse;whiteSpace=wrap;html=1;align=center;" parent="1" vertex="1">
          <mxGeometry x="321" y="343" width="100" height="40" as="geometry" />
        </mxCell>
        <mxCell id="fkJgAvSZz7Qy0QHSCjKu-13" value="" style="endArrow=none;html=1;rounded=0;exitX=0;exitY=1;exitDx=0;exitDy=0;entryX=1;entryY=0;entryDx=0;entryDy=0;" parent="1" source="fkJgAvSZz7Qy0QHSCjKu-12" target="TmSD7UhLPy2CCh7BKd5N-5" edge="1">
          <mxGeometry relative="1" as="geometry">
            <mxPoint x="351" y="433" as="sourcePoint" />
            <mxPoint x="511" y="433" as="targetPoint" />
          </mxGeometry>
        </mxCell>
        <mxCell id="fkJgAvSZz7Qy0QHSCjKu-15" value="" style="endArrow=none;html=1;rounded=0;exitX=0.5;exitY=1;exitDx=0;exitDy=0;entryX=0.5;entryY=0;entryDx=0;entryDy=0;" parent="1" source="fkJgAvSZz7Qy0QHSCjKu-8" target="fkJgAvSZz7Qy0QHSCjKu-2" edge="1">
          <mxGeometry relative="1" as="geometry">
            <mxPoint x="339.5" y="269" as="sourcePoint" />
            <mxPoint x="499.5" y="269" as="targetPoint" />
          </mxGeometry>
        </mxCell>
        <mxCell id="fkJgAvSZz7Qy0QHSCjKu-16" value="&lt;u&gt;id_agenda&lt;/u&gt;" style="ellipse;whiteSpace=wrap;html=1;align=center;" parent="1" vertex="1">
          <mxGeometry x="506" y="708" width="100" height="40" as="geometry" />
        </mxCell>
        <mxCell id="fkJgAvSZz7Qy0QHSCjKu-17" value="" style="endArrow=none;html=1;rounded=0;exitX=1;exitY=1;exitDx=0;exitDy=0;entryX=0.25;entryY=0;entryDx=0;entryDy=0;" parent="1" source="fkJgAvSZz7Qy0QHSCjKu-16" target="TmSD7UhLPy2CCh7BKd5N-53" edge="1">
          <mxGeometry relative="1" as="geometry">
            <mxPoint x="311" y="804" as="sourcePoint" />
            <mxPoint x="471" y="804" as="targetPoint" />
          </mxGeometry>
        </mxCell>
        <mxCell id="fkJgAvSZz7Qy0QHSCjKu-18" value="fecha_y_hora" style="ellipse;whiteSpace=wrap;html=1;align=center;" parent="1" vertex="1">
          <mxGeometry x="584" y="223" width="100" height="40" as="geometry" />
        </mxCell>
        <mxCell id="fkJgAvSZz7Qy0QHSCjKu-19" value="" style="endArrow=none;html=1;rounded=0;entryX=0;entryY=1;entryDx=0;entryDy=0;exitX=1;exitY=0.5;exitDx=0;exitDy=0;" parent="1" source="fkJgAvSZz7Qy0QHSCjKu-1" target="fkJgAvSZz7Qy0QHSCjKu-18" edge="1">
          <mxGeometry relative="1" as="geometry">
            <mxPoint x="351.5" y="307" as="sourcePoint" />
            <mxPoint x="511.5" y="307" as="targetPoint" />
          </mxGeometry>
        </mxCell>
        <mxCell id="fkJgAvSZz7Qy0QHSCjKu-20" value="(1,1)" style="text;html=1;align=center;verticalAlign=middle;resizable=0;points=[];autosize=1;strokeColor=none;fillColor=none;" parent="1" vertex="1">
          <mxGeometry x="459.5" y="170" width="50" height="30" as="geometry" />
        </mxCell>
        <mxCell id="fkJgAvSZz7Qy0QHSCjKu-21" value="(0,n)" style="text;html=1;align=center;verticalAlign=middle;resizable=0;points=[];autosize=1;strokeColor=none;fillColor=none;" parent="1" vertex="1">
          <mxGeometry x="459" y="373.5" width="50" height="30" as="geometry" />
        </mxCell>
        <mxCell id="fkJgAvSZz7Qy0QHSCjKu-22" value="1:N" style="text;html=1;align=center;verticalAlign=middle;resizable=0;points=[];autosize=1;strokeColor=none;fillColor=none;" parent="1" vertex="1">
          <mxGeometry x="459.5" y="228" width="40" height="30" as="geometry" />
        </mxCell>
        <mxCell id="fkJgAvSZz7Qy0QHSCjKu-23" value="teléfono" style="ellipse;whiteSpace=wrap;html=1;align=center;" parent="1" vertex="1">
          <mxGeometry x="361" y="1072" width="100" height="40" as="geometry" />
        </mxCell>
        <mxCell id="fkJgAvSZz7Qy0QHSCjKu-24" value="" style="endArrow=none;html=1;rounded=0;entryX=0;entryY=0.5;entryDx=0;entryDy=0;exitX=0;exitY=0.5;exitDx=0;exitDy=0;" parent="1" source="fkJgAvSZz7Qy0QHSCjKu-23" target="CRbmaLVPum_Gk4sRa5jC-1" edge="1">
          <mxGeometry relative="1" as="geometry">
            <mxPoint x="362" y="1094" as="sourcePoint" />
            <mxPoint x="522" y="1094" as="targetPoint" />
          </mxGeometry>
        </mxCell>
        <mxCell id="fkJgAvSZz7Qy0QHSCjKu-26" style="edgeStyle=orthogonalEdgeStyle;rounded=0;orthogonalLoop=1;jettySize=auto;html=1;exitX=0.5;exitY=1;exitDx=0;exitDy=0;" parent="1" source="TmSD7UhLPy2CCh7BKd5N-40" target="TmSD7UhLPy2CCh7BKd5N-40" edge="1">
          <mxGeometry relative="1" as="geometry" />
        </mxCell>
        <mxCell id="Hml6pKiLXl4cJgm2ryPI-2" value="tipo" style="ellipse;whiteSpace=wrap;html=1;align=center;" vertex="1" parent="1">
          <mxGeometry x="540" y="50" width="100" height="40" as="geometry" />
        </mxCell>
        <mxCell id="Hml6pKiLXl4cJgm2ryPI-6" value="" style="endArrow=none;html=1;rounded=0;exitX=1;exitY=0;exitDx=0;exitDy=0;entryX=0;entryY=1;entryDx=0;entryDy=0;" edge="1" parent="1" source="fkJgAvSZz7Qy0QHSCjKu-2" target="Hml6pKiLXl4cJgm2ryPI-2">
          <mxGeometry relative="1" as="geometry">
            <mxPoint x="524" y="140" as="sourcePoint" />
            <mxPoint x="684" y="140" as="targetPoint" />
          </mxGeometry>
        </mxCell>
      </root>
    </mxGraphModel>
  </diagram>
</mxfile>
